<svg width="232" height="232" viewBox="0 0 232 232" fill="none" xmlns="http://www.w3.org/2000/svg">
<path d="M232 -232L236.614 -88.0392L256.251 -230.729L245.791 -87.0746L280.236 -226.93L254.817 -85.156L303.692 -220.645L263.594 -82.3044L326.363 -211.943L272.024 -78.5511L348 -200.918L280.015 -73.9372L368.366 -187.692L287.481 -68.5132L387.238 -172.41L294.339 -62.3385L404.41 -155.238L300.513 -55.4809L419.692 -136.366L305.937 -48.0154L432.918 -116L310.551 -40.0238L443.943 -94.3629L314.304 -31.5937L452.645 -71.6919L317.156 -22.8175L458.93 -48.2355L319.075 -13.7913L462.729 -24.2506L320.039 -4.61394L464 0L320.039 4.61394L462.729 24.2506L319.075 13.7913L458.93 48.2355L317.156 22.8175L452.645 71.692L314.304 31.5937L443.943 94.3629L310.551 40.0238L432.918 116L305.937 48.0154L419.692 136.366L300.513 55.4809L404.41 155.238L294.339 62.3385L387.238 172.41L287.481 68.5132L368.366 187.692L280.015 73.9372L348 200.918L272.024 78.5511L326.363 211.943L263.594 82.3044L303.692 220.645L254.817 85.156L280.236 226.93L245.791 87.0746L256.251 230.729L236.614 88.0392L232 232L227.386 88.0392L207.749 230.729L218.209 87.0746L183.764 226.93L209.183 85.156L160.308 220.645L200.406 82.3044L137.637 211.943L191.976 78.5511L116 200.918L183.985 73.9372L95.6338 187.692L176.519 68.5132L76.7617 172.41L169.661 62.3385L59.5904 155.238L163.487 55.4809L44.3081 136.366L158.063 48.0154L31.0821 116L153.449 40.0238L20.0574 94.3629L149.696 31.5937L11.3549 71.692L146.844 22.8175L5.06976 48.2355L144.925 13.7913L1.27092 24.2506L143.961 4.61394L0 0L143.961 -4.61394L1.27092 -24.2506L144.925 -13.7913L5.06976 -48.2355L146.844 -22.8175L11.3549 -71.6919L149.696 -31.5937L20.0574 -94.3629L153.449 -40.0238L31.0821 -116L158.063 -48.0154L44.3081 -136.366L163.487 -55.4809L59.5904 -155.238L169.661 -62.3385L76.7617 -172.41L176.519 -68.5132L95.6338 -187.692L183.985 -73.9372L116 -200.918L191.976 -78.5511L137.637 -211.943L200.406 -82.3044L160.308 -220.645L209.183 -85.156L183.764 -226.93L218.209 -87.0746L207.749 -230.729L227.386 -88.0392L232 -232Z" fill="#ECE8D9"/>
</svg>
