<svg width="82" height="82" viewBox="0 0 82 82" fill="none" xmlns="http://www.w3.org/2000/svg">
<path d="M82 -82L84.4891 -47.4948L90.5713 -81.5508L89.44 -46.9745L99.0488 -80.2081L94.3094 -45.9394L107.339 -77.9866L99.044 -44.4011L115.352 -74.9107L103.592 -42.3763L123 -71.0141L107.903 -39.8872L130.198 -66.3394L111.93 -36.9611L136.869 -60.9379L115.63 -33.63L142.938 -54.8687L118.961 -29.9305L148.339 -48.1984L121.887 -25.903L153.014 -41L124.376 -21.5918L156.911 -33.3524L126.401 -17.044L159.987 -25.3394L127.939 -12.3094L162.208 -17.0488L128.974 -7.44003L163.551 -8.57133L129.495 -2.4891L164 0L129.495 2.4891L163.551 8.57133L128.974 7.44003L162.208 17.0488L127.939 12.3094L159.987 25.3394L126.401 17.044L156.911 33.3524L124.376 21.5918L153.014 41L121.887 25.903L148.339 48.1984L118.961 29.9305L142.938 54.8687L115.63 33.63L136.869 60.9379L111.93 36.9611L130.198 66.3394L107.903 39.8872L123 71.0141L103.592 42.3763L115.352 74.9107L99.044 44.4011L107.339 77.9866L94.3094 45.9394L99.0488 80.2081L89.44 46.9745L90.5713 81.5508L84.4891 47.4948L82 82L79.5109 47.4948L73.4287 81.5508L74.56 46.9745L64.9512 80.2081L69.6906 45.9394L56.6606 77.9866L64.956 44.4011L48.6476 74.9107L60.4082 42.3763L41 71.0141L56.097 39.8872L33.8016 66.3394L52.0695 36.9611L27.1313 60.9379L48.37 33.63L21.0621 54.8687L45.0389 29.9305L15.6606 48.1984L42.1128 25.903L10.9859 41L39.6237 21.5918L7.08927 33.3524L37.5989 17.044L4.01337 25.3394L36.0606 12.3094L1.79189 17.0488L35.0255 7.44003L0.449203 8.57133L34.5052 2.4891L0 0L34.5052 -2.4891L0.449203 -8.57133L35.0255 -7.44003L1.79189 -17.0488L36.0606 -12.3094L4.01337 -25.3394L37.5989 -17.044L7.08927 -33.3524L39.6237 -21.5918L10.9859 -41L42.1128 -25.903L15.6606 -48.1984L45.0389 -29.9305L21.0621 -54.8687L48.37 -33.63L27.1313 -60.9379L52.0695 -36.9611L33.8016 -66.3394L56.097 -39.8872L41 -71.0141L60.4082 -42.3763L48.6476 -74.9107L64.956 -44.4011L56.6606 -77.9866L69.6906 -45.9394L64.9512 -80.2081L74.56 -46.9745L73.4287 -81.5508L79.5109 -47.4948L82 -82Z" fill="#ECE8D9"/>
</svg>
