<svg width="56" height="56" viewBox="0 0 56 56" fill="none" xmlns="http://www.w3.org/2000/svg">
<path d="M28 0L30.4311 14.2127L37.5766 1.68861L35 15.8756L45.9981 6.55076L38.7246 19.001L52.2487 14L41.1557 23.2117L55.5746 23.1379L42 28L55.5746 32.8621L41.1557 32.7883L52.2487 42L38.7246 36.999L45.9981 49.4492L35 40.1244L37.5766 54.3114L30.4311 41.7873L28 56L25.5689 41.7873L18.4234 54.3114L21 40.1244L10.0019 49.4492L17.2754 36.999L3.75129 42L14.8443 32.7883L0.425383 32.8621L14 28L0.425383 23.1379L14.8443 23.2117L3.75129 14L17.2754 19.001L10.0019 6.55076L21 15.8756L18.4234 1.68861L25.5689 14.2127L28 0Z" fill="#ECE8D9"/>
<path d="M34.9282 32C34.2261 33.2162 33.2162 34.2261 32 34.9282C30.7838 35.6304 29.4043 36 28 36C26.5957 36 25.2162 35.6304 24 34.9282C22.7838 34.2261 21.7739 33.2162 21.0718 32L23.8431 30.4C24.2644 31.1297 24.8703 31.7356 25.6 32.1569C26.3297 32.5782 27.1574 32.8 28 32.8C28.8426 32.8 29.6703 32.5782 30.4 32.1569C31.1297 31.7356 31.7356 31.1297 32.1569 30.4L34.9282 32Z" fill="#102226"/>
</svg>
