<svg xmlns="http://www.w3.org/2000/svg" viewBox="0 0 16 13.003">
  <defs>
    <style>
      .cls-1 {
        fill: #354463;
      }
    </style>
  </defs>
  <path id="iconmonstr-twitter-1" class="cls-1" d="M16,3.787a6.554,6.554,0,0,1-1.885.517,3.288,3.288,0,0,0,1.443-1.816,6.576,6.576,0,0,1-2.085.8A3.285,3.285,0,0,0,7.879,6.278,9.319,9.319,0,0,1,1.114,2.849,3.287,3.287,0,0,0,2.129,7.231,3.269,3.269,0,0,1,.643,6.821a3.285,3.285,0,0,0,2.633,3.26,3.29,3.29,0,0,1-1.483.056A3.285,3.285,0,0,0,4.86,12.416,6.6,6.6,0,0,1,0,13.776a9.293,9.293,0,0,0,5.032,1.475,9.284,9.284,0,0,0,9.33-9.764A6.683,6.683,0,0,0,16,3.787Z" transform="translate(0 -2.248)"/>
</svg>
