<svg width="32" height="32" viewBox="0 0 32 32" fill="none" xmlns="http://www.w3.org/2000/svg">
<g clip-path="url(#clip0)">
<path d="M27.6615 12.2667C27.6615 17.0965 24.858 21.3396 20.6835 23.3371C20.6092 23.3727 20.5308 23.3895 20.4536 23.3895C19.8895 23.3895 19.7115 22.6198 20.2231 22.375C24.0937 20.5228 26.5948 16.5551 26.5948 12.2667C26.5948 11.9722 26.8336 11.7334 27.1281 11.7334C27.4227 11.7334 27.6615 11.9721 27.6615 12.2667ZM18.6615 25.1961C18.3669 25.1961 18.1281 25.4349 18.1281 25.7295V29.8667C18.1281 30.4548 17.6496 30.9333 17.0615 30.9333H13.7281C13.14 30.9333 12.6615 30.4548 12.6615 29.8667V26.5H16.0615C16.356 26.5 16.5948 26.2612 16.5948 25.9667C16.5948 25.6721 16.356 25.4333 16.0615 25.4333H12.6493C12.5443 24.1215 11.7488 22.9413 10.5621 22.3729C6.69414 20.5199 4.19481 16.553 4.19481 12.2667C4.19481 6.0822 9.19794 1.06667 15.3947 1.06667C17.4405 1.06667 19.4399 1.6172 21.1754 2.65993C21.4281 2.81167 21.7556 2.72993 21.9073 2.47747C22.0589 2.22493 21.9773 1.89733 21.7248 1.7456C19.8745 0.634 17.6936 0 15.3947 0C8.62181 0 3.12814 5.4794 3.12814 12.2667C3.12814 17.0947 5.92941 21.3363 10.1013 23.3348C11.0085 23.7695 11.5948 24.7093 11.5948 25.7293V29.8667C11.5948 31.043 12.5518 32 13.7281 32H17.0615C18.2378 32 19.1948 31.043 19.1948 29.8667V25.7295C19.1948 25.4349 18.9561 25.1961 18.6615 25.1961ZM24.9915 10.1323C25.3823 10.5231 25.3824 11.1556 24.9915 11.5465C24.6008 11.9372 23.9681 11.9373 23.5773 11.5465C23.1875 11.1566 23.1875 10.5222 23.5773 10.1323C23.968 9.74147 24.6007 9.74133 24.9915 10.1323ZM26.7357 9.14227C26.9441 8.934 26.9441 8.59633 26.7357 8.38807C25.381 7.03327 23.1881 7.03307 21.8331 8.38807C21.4961 8.72507 21.7395 9.29853 22.2103 9.29853C22.3467 9.29853 22.4833 9.24647 22.5874 9.14233C23.5253 8.2044 25.0434 8.20433 25.9815 9.14233C26.1897 9.35053 26.5275 9.35053 26.7357 9.14227ZM28.7157 6.4082C26.2665 3.95907 22.3026 3.9588 19.8533 6.4082C19.6449 6.61647 19.6449 6.95413 19.8533 7.1624C20.0616 7.37073 20.3992 7.37067 20.6075 7.1624C22.6397 5.1302 25.9289 5.12993 27.9614 7.1624C28.1697 7.37067 28.5073 7.37067 28.7156 7.1624C28.9239 6.95413 28.9239 6.61647 28.7157 6.4082ZM19.9948 14.5333C19.9948 15.6361 19.0976 16.5333 17.9948 16.5333H17.0615V22.6667C17.0615 22.9612 16.8227 23.2 16.5281 23.2C16.2336 23.2 15.9948 22.9612 15.9948 22.6667V16.5333H14.7948V23.3333C14.7948 23.6279 14.556 23.8667 14.2615 23.8667C13.9669 23.8667 13.7281 23.6279 13.7281 23.3333V16.5333H12.7948C11.692 16.5333 10.7948 15.6361 10.7948 14.5333C10.7948 13.4305 11.692 12.5333 12.7948 12.5333C13.8976 12.5333 14.7948 13.4305 14.7948 14.5333V15.4667H15.9948V14.5333C15.9948 13.4305 16.892 12.5333 17.9948 12.5333C19.0976 12.5333 19.9948 13.4305 19.9948 14.5333ZM12.7948 15.4667H13.7281V14.5333C13.7281 14.0187 13.3095 13.6 12.7948 13.6C12.2801 13.6 11.8615 14.0187 11.8615 14.5333C11.8615 15.048 12.2801 15.4667 12.7948 15.4667ZM18.9281 14.5333C18.9281 14.0187 18.5095 13.6 17.9948 13.6C17.4801 13.6 17.0615 14.0187 17.0615 14.5333V15.4667H17.9948C18.5095 15.4667 18.9281 15.048 18.9281 14.5333Z" fill="#9F9B8D"/>
</g>
<defs>
<clipPath id="clip0">
<rect width="32" height="32" fill="white"/>
</clipPath>
</defs>
</svg>
