<svg width="32" height="32" viewBox="0 0 32 32" fill="none" xmlns="http://www.w3.org/2000/svg">
<g clip-path="url(#clip0)">
<path d="M26.8667 16C26.8667 10.0081 21.9919 5.13333 16 5.13333C10.0081 5.13333 5.13333 10.0081 5.13333 16C5.13333 18.8214 6.21447 21.3949 7.9838 23.3286L5.67287 25.6395C5.3358 25.9765 5.5792 26.55 6.05 26.55C6.18647 26.55 6.323 26.4979 6.42713 26.3938L8.7414 24.0795C10.6779 25.821 13.2267 26.8669 16.0006 26.8667C21.9923 26.8663 26.8667 21.9917 26.8667 16ZM21.244 15.4667H16.5333V6.70053C18.0181 7.87273 21.0277 10.8081 21.244 15.4667ZM15.4667 6.21467V15.4667H10.7567C10.9096 12.246 12.4206 9.85693 13.6997 8.39407C13.8935 8.17233 13.8709 7.8354 13.6492 7.64153C13.4275 7.4476 13.0905 7.47027 12.8967 7.692C11.4969 9.29287 9.8422 11.916 9.68913 15.4667H6.21467C6.48307 10.4866 10.4866 6.48307 15.4667 6.21467ZM6.21467 16.5333H9.68867C9.88133 21.0623 12.4916 24.1069 14.2175 25.6371C9.86073 24.8331 6.46173 21.1178 6.21467 16.5333ZM10.7557 16.5333H15.4667V25.2942C12.8277 23.1993 10.9211 20.1286 10.7557 16.5333ZM16.5333 25.7853V16.5333H21.2431C21.0853 19.866 19.4783 22.316 18.1183 23.8097C17.9199 24.0275 17.9358 24.3649 18.1536 24.5631C18.3714 24.7615 18.7087 24.7456 18.907 24.5278C20.3943 22.8943 22.1529 20.2061 22.3109 16.5333H24C24.2945 16.5333 24.5333 16.2945 24.5333 16C24.5333 15.7055 24.2945 15.4667 24 15.4667H22.3114C22.1191 10.9387 19.5099 7.8938 17.7847 6.3634C22.3392 7.20487 25.8 11.2057 25.8 16C25.8 21.2248 21.69 25.5074 16.5333 25.7853ZM27.9957 27.3081L25.4105 24.7229C25.2022 24.5146 24.8645 24.5146 24.6563 24.7229C24.4479 24.9311 24.4479 25.2688 24.6563 25.4771L27.2559 28.0767C26.1919 29.7785 27.4223 32 29.4333 32C30.8486 32 32 30.8486 32 29.4333C32 27.3735 29.6866 26.1606 27.9957 27.3081ZM29.4333 30.9333C28.6062 30.9333 27.9333 30.2605 27.9333 29.4333C27.9333 28.6062 28.6062 27.9333 29.4333 27.9333C30.2605 27.9333 30.9333 28.6062 30.9333 29.4333C30.9333 30.2605 30.2605 30.9333 29.4333 30.9333ZM3.9232 4.74413L6.52287 7.3438C6.7312 7.55213 7.0688 7.55207 7.27707 7.3438C7.4854 7.13553 7.4854 6.79787 7.27707 6.5896L4.69187 4.00427C5.83933 2.3134 4.62633 0 2.56667 0C1.1514 0 0 1.1514 0 2.56667C0 4.58053 2.22453 5.8062 3.9232 4.74413ZM2.56667 1.06667C3.3938 1.06667 4.06667 1.73953 4.06667 2.56667C4.06667 3.3938 3.3938 4.06667 2.56667 4.06667C1.73953 4.06667 1.06667 3.3938 1.06667 2.56667C1.06667 1.73953 1.73953 1.06667 2.56667 1.06667ZM2.56667 26.8667C1.1514 26.8667 0 28.0181 0 29.4333C0 30.8486 1.1514 32 2.56667 32C3.98193 32 5.13333 30.8486 5.13333 29.4333C5.13333 28.0181 3.98193 26.8667 2.56667 26.8667ZM2.56667 30.9333C1.73953 30.9333 1.06667 30.2605 1.06667 29.4333C1.06667 28.6062 1.73953 27.9333 2.56667 27.9333C3.3938 27.9333 4.06667 28.6062 4.06667 29.4333C4.06667 30.2605 3.3938 30.9333 2.56667 30.9333ZM25.4105 7.27713L27.9957 4.69187C29.6866 5.83933 32 4.62633 32 2.56667C32 1.1514 30.8486 0 29.4333 0C27.4195 0 26.1938 2.22453 27.2559 3.9232L24.6562 6.52287C24.4479 6.73113 24.4479 7.0688 24.6562 7.27707C24.8645 7.4854 25.2022 7.4854 25.4105 7.27713ZM29.4333 1.06667C30.2605 1.06667 30.9333 1.73953 30.9333 2.56667C30.9333 3.3938 30.2605 4.06667 29.4333 4.06667C28.6062 4.06667 27.9333 3.3938 27.9333 2.56667C27.9333 1.73953 28.6062 1.06667 29.4333 1.06667Z" fill="#9F9B8D"/>
</g>
<defs>
<clipPath id="clip0">
<rect width="32" height="32" fill="white"/>
</clipPath>
</defs>
</svg>
