<svg width="32" height="32" viewBox="0 0 32 32" fill="none" xmlns="http://www.w3.org/2000/svg">
<g clip-path="url(#clip0)">
<path d="M27.9243 15.3003V29.3291C27.9243 30.799 26.7284 31.9949 25.2585 31.9949H12.7292C11.2593 31.9949 10.0634 30.799 10.0634 29.3291V2.67105C10.0634 1.20113 11.2593 0.00524902 12.7292 0.00524902H25.2585C26.7284 0.00524902 27.9243 1.20113 27.9243 2.67105V3.80401C27.9243 4.09845 27.6855 4.33717 27.3911 4.33717C27.0967 4.33717 26.8579 4.09845 26.8579 3.80401V2.67105C26.8579 1.78914 26.1404 1.07157 25.2585 1.07157H15.1015L15.6135 1.99314C15.7544 2.24685 16.0223 2.40447 16.3126 2.40447H21.675C21.9695 2.40447 22.2082 2.64319 22.2082 2.93763C22.2082 3.23207 21.9695 3.47079 21.675 3.47079H16.3126C15.6353 3.47079 15.0103 3.10298 14.6813 2.51097L13.8816 1.07157H12.7292C11.8473 1.07157 11.1297 1.78914 11.1297 2.67105V29.3291C11.1297 30.211 11.8473 30.9285 12.7292 30.9285H25.2585C26.1404 30.9285 26.8579 30.211 26.8579 29.3291V15.3003C26.8579 15.0058 27.0967 14.7671 27.3911 14.7671C27.6855 14.7671 27.9243 15.0058 27.9243 15.3003ZM8.53056 0.538409C8.53056 0.243971 8.29184 0.00524902 7.9974 0.00524902H2.6658C1.19588 0.00524902 0 1.20113 0 2.67105V29.3291C0 30.799 1.19588 31.9949 2.6658 31.9949H7.9974C8.29184 31.9949 8.53056 31.7561 8.53056 31.4617C8.53056 31.1673 8.29184 30.9285 7.9974 30.9285H2.6658C1.78389 30.9285 1.06632 30.211 1.06632 29.3291V2.67105C1.06632 1.78914 1.78389 1.07157 2.6658 1.07157H7.9974C8.29184 1.07157 8.53056 0.832847 8.53056 0.538409ZM4.86509 8.13594C4.86509 8.61365 4.47641 9.00232 3.9987 9.00232C3.52099 9.00232 3.13232 8.61365 3.13232 8.13594C3.13232 7.65823 3.52099 7.26955 3.9987 7.26955C4.47641 7.26955 4.86509 7.65816 4.86509 8.13594ZM4.86509 4.13724C4.86509 4.61495 4.47641 5.00362 3.9987 5.00362C3.52099 5.00362 3.13232 4.61495 3.13232 4.13724C3.13232 3.65953 3.52099 3.27085 3.9987 3.27085C4.47641 3.27085 4.86509 3.65946 4.86509 4.13724ZM6.6645 5.2702C7.14221 5.2702 7.53089 5.65888 7.53089 6.13659C7.53089 6.6143 7.14221 7.00297 6.6645 7.00297C6.18679 7.00297 5.79812 6.6143 5.79812 6.13659C5.79812 5.65888 6.18679 5.2702 6.6645 5.2702ZM28.1209 11.5808C28.7506 12.2105 28.2985 13.2873 27.414 13.2873C26.5302 13.2873 26.0769 12.211 26.7072 11.5808C27.0978 11.19 27.7302 11.1899 28.1209 11.5808C28.1209 11.5807 28.1209 11.5807 28.1209 11.5808ZM24.9635 9.83712C24.7553 10.0453 24.7553 10.3829 24.9635 10.5911C25.1718 10.7993 25.5093 10.7993 25.7175 10.5911C26.6551 9.65345 28.1729 9.65338 29.1105 10.5911C29.2147 10.6952 29.351 10.7472 29.4875 10.7472C29.9582 10.7472 30.2014 10.1739 29.8645 9.83705C28.5103 8.48276 26.3181 8.48256 24.9635 9.83712ZM31.8439 7.85783C29.3955 5.40949 25.4329 5.40929 22.9843 7.85783C22.7761 8.06603 22.7761 8.40359 22.9843 8.61178C23.1925 8.81998 23.53 8.81998 23.7383 8.61178C25.7651 6.58491 29.063 6.58504 31.0898 8.61178C31.2981 8.82005 31.6355 8.81998 31.8438 8.61178C32.0521 8.40359 32.0521 8.06603 31.8439 7.85783Z" fill="#9F9B8D"/>
</g>
<defs>
<clipPath id="clip0">
<rect width="32" height="32" fill="white"/>
</clipPath>
</defs>
</svg>
