<svg width="25" height="24" viewBox="0 0 25 24" fill="none" xmlns="http://www.w3.org/2000/svg">
<path d="M12.666 4C14.8396 4 15.1108 4.008 15.9636 4.048C16.8156 4.088 17.3956 4.2216 17.906 4.42C18.434 4.6232 18.8788 4.8984 19.3236 5.3424C19.7304 5.74232 20.0452 6.22607 20.246 6.76C20.4436 7.2696 20.578 7.8504 20.618 8.7024C20.6556 9.5552 20.666 9.8264 20.666 12C20.666 14.1736 20.658 14.4448 20.618 15.2976C20.578 16.1496 20.4436 16.7296 20.246 17.24C20.0458 17.7742 19.7309 18.2581 19.3236 18.6576C18.9236 19.0643 18.4399 19.379 17.906 19.58C17.3964 19.7776 16.8156 19.912 15.9636 19.952C15.1108 19.9896 14.8396 20 12.666 20C10.4924 20 10.2212 19.992 9.36842 19.952C8.51642 19.912 7.93642 19.7776 7.42602 19.58C6.89188 19.3796 6.40804 19.0648 6.00842 18.6576C5.60154 18.2577 5.28676 17.774 5.08602 17.24C4.88762 16.7304 4.75402 16.1496 4.71402 15.2976C4.67642 14.4448 4.66602 14.1736 4.66602 12C4.66602 9.8264 4.67402 9.5552 4.71402 8.7024C4.75402 7.8496 4.88762 7.2704 5.08602 6.76C5.2862 6.22574 5.60106 5.74186 6.00842 5.3424C6.40815 4.93538 6.89196 4.62058 7.42602 4.42C7.93642 4.2216 8.51562 4.088 9.36842 4.048C10.2212 4.0104 10.4924 4 12.666 4ZM12.666 8C11.6051 8 10.5877 8.42143 9.83759 9.17157C9.08744 9.92172 8.66602 10.9391 8.66602 12C8.66602 13.0609 9.08744 14.0783 9.83759 14.8284C10.5877 15.5786 11.6051 16 12.666 16C13.7269 16 14.7443 15.5786 15.4944 14.8284C16.2446 14.0783 16.666 13.0609 16.666 12C16.666 10.9391 16.2446 9.92172 15.4944 9.17157C14.7443 8.42143 13.7269 8 12.666 8ZM17.866 7.8C17.866 7.53478 17.7607 7.28043 17.5731 7.09289C17.3856 6.90536 17.1312 6.8 16.866 6.8C16.6008 6.8 16.3464 6.90536 16.1589 7.09289C15.9714 7.28043 15.866 7.53478 15.866 7.8C15.866 8.06522 15.9714 8.31957 16.1589 8.50711C16.3464 8.69464 16.6008 8.8 16.866 8.8C17.1312 8.8 17.3856 8.69464 17.5731 8.50711C17.7607 8.31957 17.866 8.06522 17.866 7.8ZM12.666 9.6C13.3025 9.6 13.913 9.85286 14.3631 10.3029C14.8132 10.753 15.066 11.3635 15.066 12C15.066 12.6365 14.8132 13.247 14.3631 13.6971C13.913 14.1471 13.3025 14.4 12.666 14.4C12.0295 14.4 11.419 14.1471 10.969 13.6971C10.5189 13.247 10.266 12.6365 10.266 12C10.266 11.3635 10.5189 10.753 10.969 10.3029C11.419 9.85286 12.0295 9.6 12.666 9.6Z" fill="#102226"/>
</svg>
