<svg width="33" height="32" viewBox="0 0 33 32" fill="none" xmlns="http://www.w3.org/2000/svg">
<path d="M8.6294 21.3212C7.59383 20.2272 7.03784 19.0002 7.03784 17.0112C7.03784 13.5112 9.50812 10.3742 13.1004 8.82324L13.9983 10.2012C10.6452 12.0052 9.98971 14.3462 9.72831 15.8222C10.2682 15.5442 10.975 15.4472 11.6677 15.5112C13.4815 15.6782 14.9112 17.1592 14.9112 19.0002C14.9112 19.9285 14.5404 20.8187 13.8805 21.4751C13.2206 22.1315 12.3255 22.5002 11.3923 22.5002C10.3135 22.5002 9.28191 22.0102 8.6294 21.3212ZM18.6835 21.3212C17.6479 20.2272 17.0919 19.0002 17.0919 17.0112C17.0919 13.5112 19.5622 10.3742 23.1545 8.82324L24.0523 10.2012C20.6993 12.0052 20.0438 14.3462 19.7824 15.8222C20.3223 15.5442 21.0291 15.4472 21.7218 15.5112C23.5355 15.6782 24.9652 17.1592 24.9652 19.0002C24.9652 19.9285 24.5945 20.8187 23.9346 21.4751C23.2746 22.1315 22.3796 22.5002 21.4463 22.5002C20.3675 22.5002 19.336 22.0102 18.6835 21.3212Z" fill="#CBC7B5"/>
</svg>
