<svg width="33" height="32" viewBox="0 0 33 32" fill="none" xmlns="http://www.w3.org/2000/svg">
<path d="M23.5436 10.679C24.5792 11.773 25.1351 13 25.1351 14.989C25.1351 18.489 22.6649 21.626 19.0726 23.177L18.1747 21.799C21.5278 19.995 22.1833 17.654 22.4447 16.178C21.9048 16.456 21.198 16.553 20.5053 16.489C18.6915 16.322 17.2618 14.841 17.2618 13C17.2618 12.0717 17.6326 11.1815 18.2925 10.5251C18.9524 9.86875 19.8475 9.5 20.7807 9.5C21.8595 9.5 22.8911 9.99 23.5436 10.679ZM13.4895 10.679C14.5251 11.773 15.0811 13 15.0811 14.989C15.0811 18.489 12.6108 21.626 9.0185 23.177L8.12067 21.799C11.4737 19.995 12.1292 17.654 12.3906 16.178C11.8507 16.456 11.1439 16.553 10.4512 16.489C8.63745 16.322 7.20877 14.841 7.20877 13C7.20877 12.0717 7.57951 11.1815 8.23944 10.5251C8.89936 9.86875 9.79441 9.5 10.7277 9.5C11.8065 9.5 12.838 9.99 13.4905 10.679H13.4895Z" fill="#CBC7B5"/>
</svg>
