<svg width="138" height="128" viewBox="0 0 138 128" fill="none" xmlns="http://www.w3.org/2000/svg">
<path d="M128.5 -129L134.95 -72.1703L151.445 -126.935L147.644 -69.8668L173.652 -120.806L159.722 -65.3337L194.408 -110.811L170.797 -58.7169L213.045 -97.2697L180.512 -50.2289L228.965 -80.6184L188.556 -40.1425L241.657 -61.3921L194.669 -28.7821L250.711 -40.2087L198.656 -16.5126L255.837 -17.749L200.388 -3.72847L256.871 5.26514L199.809 9.15942L253.778 28.0939L196.938 21.7369L246.659 50.0037L191.868 33.5996L235.743 70.2903L184.761 44.3663L221.379 88.3015L175.845 53.691L204.03 103.459L165.408 61.274L184.254 115.275L153.785 66.8715L162.686 123.369L141.349 70.3036L140.019 127.483L128.5 71.46L116.981 127.483L115.651 70.3036L94.3143 123.369L103.215 66.8715L72.7459 115.275L91.5918 61.274L52.9696 103.459L81.1547 53.691L35.6209 88.3015L72.2394 44.3663L21.2573 70.2903L65.1323 33.5996L10.3407 50.0037L60.062 21.7369L3.22176 28.0939L57.1913 9.15942L0.129395 5.26514L56.6125 -3.72847L1.16296 -17.749L58.3442 -16.5126L6.28924 -40.2087L62.3308 -28.7821L15.3435 -61.3921L68.4441 -40.1425L28.0347 -80.6184L76.4877 -50.2289L43.9549 -97.2697L86.203 -58.7169L62.5924 -110.811L97.2777 -65.3337L83.3483 -120.806L109.356 -69.8668L105.555 -126.935L122.05 -72.1703L128.5 -129Z" fill="#CBC7B5"/>
</svg>
