<svg width="124" height="124" viewBox="0 0 124 124" fill="none" xmlns="http://www.w3.org/2000/svg">
<path d="M62 0L67.3831 31.471L83.2052 3.73906L77.5 35.1532L101.853 14.5052L85.7474 42.0736L115.694 31L91.1305 51.3974L123.058 51.2338L93 62L123.058 72.7662L91.1305 72.6026L115.694 93L85.7474 81.9264L101.853 109.495L77.5 88.8468L83.2052 120.261L67.3831 92.529L62 124L56.6169 92.529L40.7948 120.261L46.5 88.8468L22.1472 109.495L38.2526 81.9264L8.30642 93L32.8695 72.6026L0.941917 72.7662L31 62L0.941917 51.2338L32.8695 51.3974L8.30642 31L38.2526 42.0736L22.1472 14.5052L46.5 35.1532L40.7948 3.73906L56.6169 31.471L62 0Z" fill="#ECE8D9"/>
</svg>
