<svg width="25" height="24" viewBox="0 0 25 24" fill="none" xmlns="http://www.w3.org/2000/svg">
<path d="M19.6653 7.42453C19.141 7.66904 18.5849 7.82962 18.0156 7.90096C18.6157 7.52259 19.0649 6.92712 19.2793 6.22551C18.7162 6.57884 18.0987 6.82647 17.4552 6.96042C17.0229 6.47283 16.4499 6.14945 15.8253 6.04057C15.2007 5.93169 14.5595 6.0434 14.0014 6.35833C13.4432 6.67327 12.9994 7.17378 12.7389 7.78206C12.4784 8.39034 12.4158 9.07231 12.5609 9.72194C11.4188 9.66159 10.3015 9.34871 9.2816 8.8036C8.26165 8.25849 7.36185 7.49335 6.6406 6.55784C6.38531 7.02011 6.25115 7.54561 6.25187 8.08052C6.25187 9.13039 6.75874 10.0579 7.52934 10.6009C7.0733 10.5858 6.6273 10.456 6.22852 10.2223V10.2599C6.22865 10.9591 6.45816 11.6368 6.87814 12.178C7.29811 12.7191 7.88269 13.0906 8.53277 13.2292C8.10943 13.3502 7.66554 13.368 7.2347 13.2814C7.41798 13.8832 7.77522 14.4096 8.25639 14.7867C8.73757 15.1639 9.31858 15.373 9.91808 15.3847C9.32225 15.878 8.64004 16.2427 7.91044 16.4579C7.18084 16.6731 6.41816 16.7345 5.66602 16.6388C6.97899 17.529 8.50743 18.0015 10.0685 18C15.3521 18 18.2416 13.3856 18.2416 9.38381C18.2416 9.25348 18.2381 9.1217 18.2326 8.99282C18.795 8.56431 19.2804 8.03347 19.666 7.42526L19.6653 7.42453Z" fill="#102226"/>
</svg>
